<svg width="216" height="65" fill="none" xmlns="http://www.w3.org/2000/svg"><g clip-path="url(#a)" fill="#fff"><path d="M77.233 27.414c.942.942.942 2.47 0 3.412L60.114 47.945a2.413 2.413 0 0 1-3.412 0L45.929 37.172a2.413 2.413 0 0 1 0-3.412L63.048 16.64a2.413 2.413 0 0 1 3.412 0l10.773 10.773Z"/><path d="M81.253 30.826a2.413 2.413 0 0 0 0-3.412l-7.92-7.921 2.85-2.852a2.413 2.413 0 0 1 3.413 0l10.772 10.773c.943.942.943 2.47 0 3.412L73.25 47.945a2.413 2.413 0 0 1-3.412 0l-2.852-2.852 14.267-14.267ZM109.26 33.497c.909.17 1.656.625 2.242 1.364.586.74.879 1.588.879 2.544 0 .863-.216 1.626-.647 2.289-.417.647-1.025 1.155-1.827 1.525-.801.37-1.749.555-2.844.555h-6.959V25.637h6.659c1.094 0 2.034.177 2.82.532.802.354 1.403.847 1.804 1.48.416.631.624 1.348.624 2.15 0 .94-.255 1.726-.763 2.358-.493.631-1.156 1.078-1.988 1.34Zm-5.919-1.202h2.959c.771 0 1.365-.17 1.781-.508.416-.355.624-.856.624-1.503 0-.647-.208-1.148-.624-1.503-.416-.354-1.01-.532-1.781-.532h-2.959v4.046Zm3.26 6.844c.786 0 1.395-.185 1.826-.555.448-.37.671-.894.671-1.572 0-.694-.231-1.233-.694-1.619-.462-.4-1.086-.6-1.873-.6h-3.19v4.346h3.26ZM119.723 41.983c-1.233 0-2.343-.27-3.329-.81a6.07 6.07 0 0 1-2.335-2.335c-.555-1.001-.832-2.157-.832-3.467s.285-2.467.855-3.468a6.024 6.024 0 0 1 2.381-2.312c1.002-.555 2.12-.833 3.353-.833 1.232 0 2.35.278 3.352.833a5.865 5.865 0 0 1 2.358 2.312c.586 1.002.879 2.157.879 3.468 0 1.31-.301 2.466-.902 3.467a6.14 6.14 0 0 1-2.405 2.335c-1.001.54-2.126.81-3.375.81Zm0-2.82a3.37 3.37 0 0 0 1.641-.417 3.162 3.162 0 0 0 1.249-1.294c.308-.571.462-1.265.462-2.081 0-1.218-.323-2.15-.971-2.798-.631-.663-1.41-.994-2.335-.994s-1.703.331-2.335.994c-.616.647-.925 1.58-.925 2.798 0 1.217.301 2.157.902 2.82.617.647 1.387.971 2.312.971ZM131.09 30.954a4.58 4.58 0 0 1 1.619-1.595c.678-.385 1.449-.578 2.312-.578v3.399h-.856c-1.017 0-1.788.239-2.312.717-.508.477-.763 1.31-.763 2.497v6.38h-3.236V28.967h3.236v1.988ZM135.444 35.324c0-1.294.255-2.443.763-3.445.524-1.002 1.233-1.772 2.127-2.312.894-.54 1.888-.809 2.982-.809.833 0 1.627.185 2.382.555.755.355 1.356.832 1.803 1.434v-6.081h3.283v17.109h-3.283v-1.896c-.4.632-.963 1.14-1.687 1.526-.725.385-1.565.578-2.52.578a5.503 5.503 0 0 1-2.96-.832c-.894-.555-1.603-1.334-2.127-2.336-.508-1.017-.763-2.18-.763-3.49Zm10.081.047c0-.787-.155-1.457-.463-2.012-.308-.57-.724-1.002-1.248-1.295a3.274 3.274 0 0 0-1.688-.462c-.601 0-1.156.146-1.665.44-.509.292-.925.724-1.248 1.294-.308.555-.463 1.218-.463 1.988 0 .771.155 1.45.463 2.035.323.57.739 1.01 1.248 1.318a3.235 3.235 0 0 0 1.665.462c.601 0 1.164-.146 1.688-.44a3.36 3.36 0 0 0 1.248-1.294c.308-.57.463-1.248.463-2.035ZM162.927 35.093c0 .462-.031.879-.092 1.249h-9.364c.078.925.401 1.649.971 2.173.571.524 1.272.786 2.104.786 1.203 0 2.058-.517 2.567-1.55h3.491c-.37 1.234-1.079 2.251-2.127 3.053-1.048.786-2.336 1.179-3.862 1.179-1.232 0-2.342-.27-3.329-.81a5.947 5.947 0 0 1-2.288-2.335c-.54-1.001-.81-2.157-.81-3.467 0-1.326.27-2.49.81-3.492a5.642 5.642 0 0 1 2.265-2.312c.971-.539 2.089-.809 3.352-.809 1.218 0 2.305.262 3.26.786a5.418 5.418 0 0 1 2.243 2.243c.54.956.809 2.058.809 3.306Zm-3.352-.925c-.016-.832-.316-1.495-.902-1.988-.585-.509-1.302-.763-2.15-.763-.801 0-1.479.247-2.034.74-.54.478-.871 1.148-.995 2.011h6.081ZM167.602 30.954a4.586 4.586 0 0 1 1.618-1.595c.679-.385 1.449-.578 2.313-.578v3.399h-.856c-1.017 0-1.788.239-2.312.717-.509.477-.763 1.31-.763 2.497v6.38h-3.237V28.967h3.237v1.988Z"/></g><defs><clipPath id="a"><path fill="#fff" transform="translate(45 15)" d="M0 0h127v34H0z"/></clipPath></defs></svg>