<svg width="216" height="64" fill="none" xmlns="http://www.w3.org/2000/svg"><g clip-path="url(#a)" fill="#fff"><path d="M44.38 19.574H32.734v-3.64H44.38a7.279 7.279 0 0 1 7.28 7.28V34.86h-3.64V23.214a3.64 3.64 0 0 0-3.64-3.64ZM31.279 39.955h11.646v3.64H31.28A7.279 7.279 0 0 1 24 36.314V24.67h3.64v11.646a3.64 3.64 0 0 0 3.639 3.64Z"/><path fill-rule="evenodd" clip-rule="evenodd" d="M45.108 29.764a7.279 7.279 0 1 1-14.557 0 7.279 7.279 0 0 1 14.558 0Zm-3.639 0a3.64 3.64 0 1 1-7.279 0 3.64 3.64 0 0 1 7.28 0Z"/><path d="M67.192 41.276c-1.378 0-2.62-.236-3.722-.709-1.103-.492-1.97-1.18-2.6-2.067-.63-.886-.945-1.92-.945-3.102h3.604c.079.886.423 1.615 1.034 2.186.63.571 1.506.857 2.629.857 1.162 0 2.068-.276 2.718-.827.65-.571.974-1.3.974-2.186 0-.69-.206-1.25-.62-1.684-.394-.434-.896-.768-1.507-1.005-.59-.236-1.418-.492-2.481-.768-1.339-.354-2.432-.709-3.279-1.063-.827-.374-1.536-.945-2.127-1.713-.59-.768-.886-1.793-.886-3.073 0-1.181.295-2.215.886-3.101.591-.887 1.418-1.566 2.482-2.039 1.063-.472 2.294-.709 3.692-.709 1.99 0 3.614.503 4.874 1.507 1.28.985 1.99 2.343 2.127 4.076h-3.722c-.059-.748-.413-1.388-1.063-1.92-.65-.531-1.507-.797-2.57-.797-.965 0-1.753.246-2.364.738-.61.493-.915 1.202-.915 2.127 0 .63.187 1.152.56 1.566.395.394.887.709 1.478.945.59.236 1.398.492 2.422.768 1.36.374 2.462.749 3.309 1.123a5.35 5.35 0 0 1 2.186 1.743c.61.768.915 1.801.915 3.102 0 1.043-.285 2.028-.856 2.953-.552.926-1.369 1.675-2.452 2.245-1.063.552-2.324.827-3.781.827ZM84.99 24.527c1.28 0 2.423.266 3.427.798 1.024.532 1.822 1.32 2.393 2.363.571 1.044.857 2.304.857 3.781v9.6h-3.338v-9.098c0-1.457-.365-2.57-1.093-3.338-.729-.787-1.724-1.181-2.984-1.181s-2.265.394-3.013 1.181c-.729.768-1.093 1.881-1.093 3.338v9.099h-3.368V24.793h3.368v1.861a5.6 5.6 0 0 1 2.097-1.565 6.855 6.855 0 0 1 2.747-.562ZM93.362 32.858c0-1.635.335-3.082 1.005-4.343.69-1.26 1.615-2.235 2.776-2.924 1.182-.71 2.482-1.064 3.9-1.064 1.28 0 2.393.256 3.338.768.965.493 1.733 1.113 2.304 1.861v-2.363h3.397V41.07h-3.397v-2.422c-.571.768-1.349 1.408-2.334 1.92-.984.512-2.107.768-3.367.768-1.399 0-2.679-.355-3.84-1.064-1.162-.728-2.088-1.733-2.777-3.013-.67-1.3-1.005-2.767-1.005-4.401Zm13.323.059c0-1.123-.236-2.098-.709-2.925-.453-.827-1.054-1.457-1.802-1.89a4.753 4.753 0 0 0-2.422-.65c-.867 0-1.674.216-2.422.65-.75.413-1.36 1.034-1.832 1.86-.453.808-.68 1.773-.68 2.896 0 1.122.227 2.107.68 2.954.473.846 1.083 1.496 1.832 1.95.768.433 1.575.65 2.422.65.866 0 1.674-.217 2.422-.65.748-.434 1.349-1.064 1.802-1.891.473-.847.709-1.832.709-2.954ZM116.396 27.186c.571-.748 1.349-1.379 2.334-1.89.984-.513 2.097-.769 3.338-.769 1.418 0 2.707.355 3.87 1.064 1.181.689 2.107 1.664 2.776 2.924.67 1.26 1.005 2.708 1.005 4.343 0 1.634-.335 3.102-1.005 4.401-.669 1.28-1.595 2.285-2.776 3.013-1.163.71-2.452 1.064-3.87 1.064-1.241 0-2.344-.247-3.309-.739-.965-.512-1.752-1.142-2.363-1.89v10.102h-3.368V24.794h3.368v2.393Zm9.896 5.672c0-1.123-.236-2.088-.709-2.895-.453-.827-1.063-1.448-1.831-1.861a4.756 4.756 0 0 0-2.423-.65c-.847 0-1.654.216-2.422.65-.748.433-1.359 1.063-1.832 1.89-.452.827-.679 1.802-.679 2.925 0 1.122.227 2.107.679 2.954.473.827 1.084 1.457 1.832 1.89.768.434 1.575.65 2.422.65.867 0 1.674-.216 2.423-.65.768-.453 1.378-1.103 1.831-1.95.473-.846.709-1.83.709-2.953ZM138.336 41.276c-1.378 0-2.619-.236-3.722-.709-1.103-.492-1.969-1.18-2.599-2.067-.63-.886-.946-1.92-.946-3.102h3.605c.078.886.423 1.615 1.033 2.186.63.571 1.507.857 2.629.857 1.162 0 2.068-.276 2.718-.827.65-.571.975-1.3.975-2.186 0-.69-.207-1.25-.62-1.684-.394-.434-.896-.768-1.507-1.005-.591-.236-1.418-.492-2.481-.768-1.339-.354-2.433-.709-3.279-1.063-.827-.374-1.536-.945-2.127-1.713-.591-.768-.886-1.793-.886-3.073 0-1.181.295-2.215.886-3.101.591-.887 1.418-1.566 2.481-2.039 1.064-.472 2.295-.709 3.693-.709 1.989 0 3.614.503 4.874 1.507 1.28.985 1.989 2.343 2.127 4.076h-3.722c-.059-.748-.414-1.388-1.064-1.92-.65-.531-1.507-.797-2.57-.797-.965 0-1.752.246-2.363.738-.61.493-.916 1.202-.916 2.127 0 .63.187 1.152.561 1.566.394.394.887.709 1.477.945.591.236 1.399.492 2.423.768 1.359.374 2.462.749 3.308 1.123a5.344 5.344 0 0 1 2.186 1.743c.611.768.916 1.801.916 3.102 0 1.043-.285 2.028-.857 2.953-.551.926-1.368 1.675-2.451 2.245-1.064.552-2.324.827-3.782.827ZM156.341 24.528c1.24 0 2.344.266 3.308.797.985.532 1.753 1.32 2.305 2.364.571 1.043.856 2.304.856 3.78v9.601h-3.338v-9.098c0-1.457-.364-2.57-1.093-3.338-.728-.788-1.723-1.182-2.983-1.182-1.261 0-2.265.394-3.014 1.182-.728.768-1.093 1.88-1.093 3.338v9.098h-3.367V19.21h3.367v7.474a5.675 5.675 0 0 1 2.157-1.595c.886-.374 1.851-.561 2.895-.561ZM172.689 41.336c-1.536 0-2.924-.345-4.165-1.034a7.668 7.668 0 0 1-2.924-2.954c-.709-1.28-1.064-2.757-1.064-4.431 0-1.655.364-3.122 1.093-4.402.729-1.28 1.723-2.265 2.984-2.954 1.26-.689 2.668-1.034 4.224-1.034s2.964.345 4.224 1.034c1.261.69 2.255 1.674 2.984 2.954.729 1.28 1.093 2.747 1.093 4.402 0 1.654-.374 3.121-1.123 4.401a7.845 7.845 0 0 1-3.072 2.984c-1.28.69-2.698 1.034-4.254 1.034Zm0-2.925c.867 0 1.674-.207 2.423-.62.768-.413 1.388-1.034 1.861-1.861.472-.827.709-1.832.709-3.013 0-1.182-.227-2.176-.68-2.984-.453-.827-1.054-1.447-1.802-1.86a4.927 4.927 0 0 0-2.422-.621c-.866 0-1.674.207-2.422.62-.729.414-1.31 1.034-1.743 1.861-.433.808-.65 1.802-.65 2.984 0 1.752.443 3.111 1.329 4.076.906.946 2.038 1.418 3.397 1.418ZM186.918 27.54v9.01c0 .61.138 1.054.414 1.33.295.255.788.384 1.477.384h2.068v2.806h-2.659c-1.516 0-2.678-.355-3.485-1.064-.808-.709-1.212-1.86-1.212-3.456v-9.01h-1.919v-2.747h1.919v-4.047h3.397v4.047h3.959v2.747h-3.959Z"/></g><defs><clipPath id="a"><path fill="#fff" transform="translate(24 15)" d="M0 0h167v34H0z"/></clipPath></defs></svg>