<svg width="216" height="65" fill="none" xmlns="http://www.w3.org/2000/svg"><g clip-path="url(#a)" fill="#fff"><path d="m21.018 34.895 7.362-3.205 4.238 2.404.856 7.886-5.222-.042.77-5.483-.899-.506-4.409 3.374-2.696-4.428ZM32.932 33.9l6.6 4.83 2.606-4.656-5.298-2.133v-1.044l5.298-2.176-2.605-4.613-6.601 4.83V33.9ZM32.618 28.203l.856-7.886-5.222.085.77 5.482-.899.506-4.451-3.374-2.654 4.386 7.362 3.205 4.238-2.404ZM74.61 29.437v14.099h5.246V25.568h-7.64v3.869h2.395ZM74.446 23.044c.481.503 1.213.754 2.197.754s1.705-.251 2.163-.754c.482-.525.722-1.18.722-1.967 0-.809-.24-1.465-.722-1.967-.458-.525-1.18-.787-2.163-.787-.984 0-1.716.262-2.197.787-.459.502-.688 1.158-.688 1.967 0 .787.23 1.442.688 1.967ZM56.35 43.142c1.485.678 3.31 1.017 5.474 1.017 2.033 0 3.781-.317 5.246-.951 1.465-.634 2.59-1.52 3.377-2.656.809-1.158 1.213-2.503 1.213-4.033 0-1.486-.382-2.743-1.147-3.77-.744-1.05-1.781-1.87-3.115-2.459-1.334-.612-2.874-.995-4.623-1.148l-1.836-.163c-1.093-.088-1.88-.383-2.36-.886a2.478 2.478 0 0 1-.722-1.77c0-.525.131-1.006.393-1.443.263-.459.656-.82 1.18-1.082.547-.262 1.214-.393 2-.393.83 0 1.52.152 2.066.459.12.064.235.134.342.207l.026.018a2.967 2.967 0 0 1 .91.988c.285.48.428 1.016.428 1.606h5.245c0-1.573-.36-2.94-1.082-4.098-.721-1.18-1.76-2.087-3.114-2.722-1.334-.655-2.94-.983-4.82-.983-1.793 0-3.344.306-4.656.918-1.311.59-2.339 1.443-3.082 2.557-.722 1.115-1.082 2.438-1.082 3.968 0 2.12.71 3.825 2.131 5.114 1.42 1.29 3.323 2.033 5.705 2.23l1.804.164c1.464.131 2.524.426 3.18.885.655.437.983 1.038.983 1.803a2.8 2.8 0 0 1-.172.99 2.729 2.729 0 0 1-.352.65c-.35.459-.864.82-1.541 1.082-.678.262-1.52.393-2.525.393-1.115 0-2.022-.153-2.721-.459-.7-.328-1.224-.754-1.574-1.278a3.16 3.16 0 0 1-.492-1.706h-5.213c0 1.552.383 2.93 1.147 4.132.766 1.18 1.892 2.12 3.378 2.82ZM91.561 43.765c-1.814 0-3.279-.218-4.393-.656-1.115-.459-1.934-1.213-2.46-2.262-.502-1.071-.753-2.514-.753-4.328v-7.115h-2.722v-3.836h2.722v-4.852h4.885v4.852h5.246v3.836H88.84v7.312c0 .852.219 1.508.656 1.967.458.437 1.103.655 1.934.655h2.656v4.427h-2.525Z"/><path fill-rule="evenodd" clip-rule="evenodd" d="M100.402 43.372c1.18.525 2.535.787 4.065.787 1.508 0 2.842-.262 4.001-.787 1.158-.525 2.12-1.257 2.884-2.197a7.55 7.55 0 0 0 1.541-3.213h-4.819c-.218.547-.634 1.005-1.246 1.377-.612.372-1.399.558-2.361.558-.595 0-1.128-.07-1.597-.212a3.56 3.56 0 0 1-.96-.444c-.656-.437-1.137-1.05-1.443-1.836a7.252 7.252 0 0 1-.369-1.476h13.123v-1.77c0-1.64-.349-3.148-1.049-4.524a8.401 8.401 0 0 0-3.049-3.378c-1.311-.874-2.929-1.311-4.853-1.311-1.464 0-2.776.262-3.934.787-1.136.502-2.087 1.19-2.852 2.065a9.575 9.575 0 0 0-1.771 2.984 10.089 10.089 0 0 0-.59 3.442v.656c0 1.159.197 2.295.59 3.41a10.101 10.101 0 0 0 1.77 2.983c.788.875 1.76 1.574 2.919 2.1Zm-.214-10.684a6.102 6.102 0 0 1 .312-1.02c.328-.81.809-1.422 1.443-1.837.237-.155.494-.281.769-.378a4.684 4.684 0 0 1 1.558-.245c.897 0 1.64.208 2.23.623.612.393 1.071.973 1.377 1.738a5.38 5.38 0 0 1 .172.5 6.922 6.922 0 0 1 .191.877h-8.102c.015-.088.032-.174.05-.258Z"/><path d="M115.386 43.536V25.568h4.164v4.526a9.404 9.404 0 0 1 .393-1.378c.459-1.224 1.148-2.142 2.066-2.754.918-.634 2.043-.95 3.377-.95h.229c1.356 0 2.481.316 3.377.95.918.612 1.607 1.53 2.066 2.754l.036.092.031.085.064-.177c.481-1.224 1.181-2.142 2.099-2.754.917-.634 2.043-.95 3.377-.95h.229c1.355 0 2.492.316 3.41.95.94.612 1.65 1.53 2.131 2.754.481 1.224.722 2.754.722 4.59v10.23h-5.247V33.01c0-.984-.262-1.781-.787-2.393-.502-.612-1.223-.918-2.163-.918-.94 0-1.683.317-2.23.95-.546.612-.82 1.432-.82 2.46v10.426h-5.278V33.01c0-.984-.263-1.781-.787-2.393-.503-.612-1.213-.918-2.131-.918-.962 0-1.716.317-2.263.95-.546.612-.82 1.432-.82 2.46v10.426h-5.245Z"/><path fill-rule="evenodd" clip-rule="evenodd" d="M157.17 40.074v3.462h4.163V32.519c0-1.66-.327-3.016-.983-4.065-.656-1.071-1.617-1.87-2.885-2.394-1.246-.524-2.787-.787-4.623-.787a62.247 62.247 0 0 0-2.033.033 61.67 61.67 0 0 0-2.098.099l-.518.034a76.099 76.099 0 0 0-1.253.097v4.426a188.67 188.67 0 0 1 2.954-.165 94.763 94.763 0 0 1 3.636-.097c.962 0 1.661.23 2.099.688.437.46.655 1.148.655 2.066v.065h-3.245c-1.596 0-3.006.208-4.23.623-1.224.394-2.175 1.017-2.852 1.87-.678.83-1.017 1.9-1.017 3.212 0 1.203.273 2.24.82 3.115.546.853 1.3 1.508 2.262 1.967.984.46 2.121.689 3.41.689 1.246 0 2.295-.23 3.148-.689a4.895 4.895 0 0 0 2.032-1.967 5.804 5.804 0 0 0 .516-1.138l.042-.127Zm-.886-3.194v-1.443h-3.278c-.918 0-1.628.23-2.131.689-.481.437-.722 1.038-.722 1.803 0 .36.06.688.18.982.121.296.301.559.542.789.503.437 1.213.655 2.131.655.174 0 .343-.008.506-.025.134-.014.263-.034.388-.06.241-.048.468-.118.68-.21.481-.218.874-.579 1.179-1.082.307-.503.482-1.202.525-2.098Z"/><path d="M164.473 43.536V25.57h4.164v5.93c.199-1.693.702-3.058 1.508-4.094 1.093-1.377 2.666-2.066 4.722-2.066h.688v4.525h-1.312c-1.442 0-2.557.393-3.344 1.18-.787.765-1.181 1.88-1.181 3.344v9.148h-5.245ZM182.207 35.142h1.738l5.671 8.394h5.902l-7.192-10.308 5.913-7.66h-5.507l-6.525 8.544v-14.51h-5.246v23.934h5.246v-8.394Z"/></g><defs><clipPath id="a"><path fill="#fff" transform="translate(21 18)" d="M0 0h175v27H0z"/></clipPath></defs></svg>