<svg width="216" height="65" fill="none" xmlns="http://www.w3.org/2000/svg"><g clip-path="url(#a)" fill="#fff"><path d="M71.656 16.46h5.032l-5.484 23.084h-8.85L56.87 16.46h5.033l4.096 19.01h1.561l4.096-19.01ZM81.487 32.993c.023 1.04.301 1.799.833 2.274.555.453 1.342.679 2.36.679 2.152 0 4.073-.068 5.762-.204l.972-.101.07 3.36c-2.662.634-5.068.95-7.22.95-2.615 0-4.512-.678-5.692-2.036-1.18-1.358-1.77-3.565-1.77-6.62 0-6.088 2.557-9.131 7.67-9.131 5.044 0 7.567 2.557 7.567 7.672l-.348 3.157H81.487Zm5.97-3.463c0-1.358-.22-2.297-.66-2.818-.439-.543-1.214-.814-2.325-.814-1.087 0-1.863.283-2.325.848-.44.544-.671 1.471-.695 2.784h6.005ZM94.667 39.544V22.571h4.616v1.8c1.944-1.132 3.795-1.868 5.553-2.207v4.582c-1.874.385-3.482.781-4.824 1.189l-.694.237v11.372h-4.651ZM116.501 26.44h-4.269v6.96c0 .679.012 1.165.035 1.46.046.271.173.509.382.712.231.204.578.306 1.041.306l2.638-.068.208 3.632c-1.551.34-2.73.51-3.54.51-2.083 0-3.506-.453-4.269-1.358-.764-.928-1.146-2.626-1.146-5.092V26.44h-2.048v-3.87h2.048v-4.719h4.651v4.719h4.269v3.87ZM118.837 39.544V22.571h4.651v16.973h-4.651Zm0-19.146v-4.617h4.651v4.617h-4.651ZM142.813 41.649c0 1.947-.764 3.383-2.291 4.311-1.527.928-3.598 1.392-6.212 1.392-2.592 0-4.593-.34-6.005-1.018-1.388-.679-2.082-1.913-2.082-3.7 0-1.426.833-2.773 2.499-4.04-.856-.566-1.285-1.426-1.285-2.58 0-.453.348-1.2 1.042-2.24l.312-.476c-1.573-1.109-2.36-2.738-2.36-4.888 0-2.173.659-3.746 1.978-4.719 1.342-.973 3.112-1.46 5.311-1.46.994 0 1.978.114 2.95.34l.555.102 5.588-.17v3.632l-2.603-.203c.509.77.764 1.539.764 2.308 0 2.263-.59 3.825-1.771 4.685-1.179.86-3.031 1.29-5.553 1.29a6.734 6.734 0 0 1-1.423-.136c-.231.588-.347 1.075-.347 1.46 0 .362.197.61.59.746.393.136 1.319.216 2.777.238 2.915.023 4.905.408 5.97 1.154 1.064.725 1.596 2.048 1.596 3.972Zm-12.009.51c0 .972 1.215 1.459 3.644 1.459 2.453 0 3.68-.566 3.68-1.698 0-.61-.209-1.006-.625-1.187-.417-.159-1.296-.25-2.638-.272l-3.124-.238c-.624.611-.937 1.256-.937 1.935Zm.278-13.885c0 1.652.879 2.478 2.638 2.478 1.781 0 2.672-.826 2.672-2.478 0-1.675-.891-2.512-2.672-2.512-1.759 0-2.638.837-2.638 2.512ZM145.873 24.506c1.227-1.562 3.274-2.342 6.144-2.342 2.869 0 4.917.78 6.143 2.342 1.226 1.539 1.84 3.711 1.84 6.518 0 5.952-2.661 8.928-7.983 8.928-5.322 0-7.983-2.976-7.983-8.928 0-2.807.613-4.98 1.839-6.518Zm3.576 10.354c.485.815 1.341 1.222 2.568 1.222 1.226 0 2.071-.407 2.534-1.222.485-.815.728-2.094.728-3.836 0-1.743-.243-3.01-.728-3.802-.463-.792-1.308-1.189-2.534-1.189-1.227 0-2.083.397-2.568 1.189-.463.792-.695 2.06-.695 3.802s.232 3.021.695 3.836Z"/></g><defs><clipPath id="a"><path fill="#fff" transform="translate(56 15)" d="M0 0h104v33H0z"/></clipPath></defs></svg>