<svg width="64" height="60" fill="none" xmlns="http://www.w3.org/2000/svg"><path d="m16.46 59.134-6.695-4.58a1.14 1.14 0 0 1-.267-1.623l16-20.232a1.114 1.114 0 0 0-.595-1.766l-23.62-4.088a1.119 1.119 0 0 1-.781-1.376l2.115-8.134a1.125 1.125 0 0 1 1.479-.78L28.004 26.66a1.127 1.127 0 0 0 1.52-1.109l-3.04-24.38A1.136 1.136 0 0 1 27.614 0h7.6c.616 0 1.13.513 1.13 1.13l-2.055 24.195c0 .78.78 1.335 1.52 1.069l23.066-9.634c.575-.205 1.192.082 1.438.637l3.143 7.703a1.139 1.139 0 0 1-.74 1.52l-24.4 4.21a1.12 1.12 0 0 0-.576 1.787l16.165 19.82A1.11 1.11 0 0 1 53.74 54l-6.305 5.279a1.133 1.133 0 0 1-1.664-.247c-4.437-6.573-8.627-16.904-13.145-23.58-.452-.677-1.459-.657-1.89 0-4.375 6.655-8.4 16.843-12.673 23.334a1.114 1.114 0 0 1-1.582.308l-.02.04Z" fill="#5D828B"/></svg>