<svg width="216" height="65" fill="none" xmlns="http://www.w3.org/2000/svg"><g clip-path="url(#a)" fill="#fff"><path d="M27.877 44.089V19.323h4.654l11.963 17.442V19.323h4.655v24.766h-4.655L32.531 26.682v17.407h-4.654ZM60.92 44.514c-1.819 0-3.43-.378-4.837-1.133a8.317 8.317 0 0 1-3.309-3.184c-.8-1.368-1.2-2.948-1.2-4.74 0-1.817.388-3.433 1.164-4.848.8-1.415 1.89-2.512 3.273-3.29 1.405-.802 3.054-1.203 4.945-1.203 1.77 0 3.333.377 4.69 1.132a8.08 8.08 0 0 1 3.164 3.113c.776 1.298 1.164 2.748 1.164 4.352 0 .26-.012.53-.037.814 0 .283-.012.578-.036.884H56.192c.097 1.368.582 2.442 1.455 3.22.897.778 1.976 1.168 3.236 1.168.945 0 1.733-.201 2.363-.602.655-.425 1.14-.967 1.455-1.627h4.727a8.313 8.313 0 0 1-1.709 3.042c-.776.897-1.745 1.604-2.909 2.123-1.14.52-2.436.779-3.89.779Zm.036-14.719c-1.14 0-2.146.319-3.018.956-.873.613-1.43 1.556-1.673 2.83h8.982c-.073-1.156-.51-2.076-1.31-2.76-.8-.684-1.793-1.026-2.981-1.026Z"/><path d="m69.118 44.088 6.545-8.775-6.545-8.774H74.1l4.581 6.227 4.546-6.227h5.018l-6.582 8.774 6.582 8.775h-5.018L78.68 37.86 74.1 44.088h-4.982Z"/><path d="M97.428 44.088c-1.89 0-3.406-.448-4.546-1.345-1.139-.896-1.708-2.488-1.708-4.776v-7.642h-3.091v-3.786h3.09l.546-4.706h4.109v4.706h4.873v3.786h-4.873v7.677c0 .85.182 1.44.545 1.77.388.306 1.043.46 1.964.46h2.255v3.856h-3.164ZM102.878 44.089V26.54h4.109l.4 2.37a6.237 6.237 0 0 1 2.291-2.016c.969-.519 2.085-.778 3.345-.778 2.788 0 4.764 1.05 5.927 3.149.655-.968 1.527-1.734 2.618-2.3 1.115-.566 2.327-.85 3.636-.85 2.352 0 4.158.685 5.419 2.053 1.26 1.368 1.89 3.373 1.89 6.014v9.907h-4.654v-9.482c0-1.51-.303-2.665-.909-3.467-.582-.802-1.491-1.203-2.727-1.203-1.261 0-2.279.448-3.055 1.344-.751.897-1.127 2.147-1.127 3.75v9.058h-4.654v-9.482c0-1.51-.303-2.665-.909-3.467-.606-.802-1.54-1.203-2.8-1.203-1.237 0-2.243.448-3.018 1.344-.752.897-1.127 2.147-1.127 3.75v9.058h-4.655ZM143.769 44.514c-1.745 0-3.321-.39-4.727-1.168a8.906 8.906 0 0 1-3.309-3.22c-.8-1.391-1.2-2.995-1.2-4.811 0-1.817.412-3.409 1.236-4.777a8.837 8.837 0 0 1 3.309-3.255c1.406-.778 2.982-1.167 4.728-1.167 1.721 0 3.272.389 4.654 1.167a8.491 8.491 0 0 1 3.309 3.255c.824 1.368 1.236 2.96 1.236 4.777 0 1.816-.412 3.42-1.236 4.811a8.566 8.566 0 0 1-3.309 3.22c-1.406.778-2.97 1.168-4.691 1.168Zm0-3.928c1.212 0 2.267-.436 3.164-1.309.897-.896 1.345-2.217 1.345-3.962 0-1.746-.448-3.055-1.345-3.928-.897-.896-1.94-1.344-3.127-1.344-1.237 0-2.303.448-3.2 1.344-.873.873-1.309 2.182-1.309 3.928 0 1.745.436 3.066 1.309 3.962.897.873 1.951 1.31 3.163 1.31ZM159.333 44.088l-6.618-17.549h4.873l4.581 13.268 4.582-13.268h4.872l-6.654 17.549h-5.636ZM180.618 44.514c-1.818 0-3.431-.378-4.836-1.133a8.325 8.325 0 0 1-3.31-3.184c-.799-1.368-1.2-2.948-1.2-4.74 0-1.817.389-3.433 1.164-4.848.8-1.415 1.891-2.512 3.273-3.29 1.406-.802 3.054-1.203 4.945-1.203 1.77 0 3.333.377 4.691 1.132 1.357.755 2.412 1.793 3.163 3.113.776 1.298 1.164 2.748 1.164 4.352 0 .26-.012.53-.036.814 0 .283-.013.578-.037.884h-13.708c.096 1.368.582 2.442 1.454 3.22.897.778 1.976 1.168 3.236 1.168.946 0 1.734-.201 2.364-.602.654-.425 1.139-.967 1.454-1.627h4.727a8.319 8.319 0 0 1-1.708 3.042c-.776.897-1.746 1.604-2.91 2.123-1.139.52-2.436.779-3.89.779Zm.036-14.719c-1.139 0-2.145.319-3.018.956-.873.613-1.43 1.556-1.673 2.83h8.982c-.073-1.156-.509-2.076-1.309-2.76-.8-.684-1.794-1.026-2.982-1.026Z"/></g><defs><clipPath id="a"><path fill="#fff" transform="translate(27 19)" d="M0 0h163v26H0z"/></clipPath></defs></svg>