<svg width="216" height="65" fill="none" xmlns="http://www.w3.org/2000/svg"><g clip-path="url(#a)" fill="#fff"><path d="M87.698 46.278c-3 0-5.34-.836-7.02-2.51-1.66-1.673-2.491-4.062-2.491-7.166V24.748h4.86V36.42c0 3.79 1.56 5.685 4.681 5.685 1.52 0 2.68-.453 3.48-1.36.8-.928 1.2-2.37 1.2-4.325V24.748h4.8v11.854c0 3.104-.84 5.493-2.52 7.166-1.66 1.674-3.99 2.51-6.99 2.51ZM99.582 35.514h8.491v3.78h-8.491v-3.78ZM113.852 28.74h-6.721v-3.992h18.302v3.992h-6.721v17.176h-4.86V28.74ZM142.127 29.646v16.27h-4.44V43.98a6.375 6.375 0 0 1-2.22 1.633c-.86.362-1.79.544-2.791.544-2.12 0-3.8-.615-5.04-1.844-1.24-1.23-1.86-3.055-1.86-5.474v-9.192h4.68v8.497c0 2.62 1.091 3.93 3.271 3.93 1.12 0 2.02-.362 2.7-1.088.68-.746 1.02-1.844 1.02-3.296v-8.043h4.68ZM149.434 31.793c.56-.786 1.31-1.38 2.25-1.784.961-.403 2.061-.605 3.301-.605v4.355c-.52-.04-.87-.06-1.05-.06-1.341 0-2.39.382-3.151 1.148-.76.746-1.14 1.875-1.14 3.387v7.68h-4.68V29.647h4.47v2.147ZM166.079 29.404c2 0 3.61.605 4.83 1.815 1.24 1.21 1.86 3.003 1.86 5.382v9.314h-4.68v-8.588c0-1.29-.28-2.248-.84-2.873-.56-.645-1.37-.967-2.431-.967-1.179 0-2.119.372-2.82 1.118-.7.726-1.05 1.815-1.05 3.266v8.044h-4.68V29.646h4.47v1.905c.62-.685 1.39-1.21 2.311-1.572.919-.383 1.93-.575 3.03-.575Z"/><path fill-rule="evenodd" clip-rule="evenodd" d="M57.277 19.248a2.033 2.033 0 0 1 2.89 0l7.475 7.533-7.508 7.224a2.033 2.033 0 0 1-2.89-.068 2.071 2.071 0 0 1 .067-2.912l2.305-2.218h-4.981c-3.989 0-7.222 3.259-7.222 7.278 0 4.02 3.233 7.28 7.222 7.28h10.083c1.128 0 2.044.921 2.044 2.059 0 1.138-.916 2.06-2.044 2.06H54.635c-6.246 0-11.31-5.103-11.31-11.399 0-6.295 5.064-11.398 11.31-11.398h5.148l-2.506-2.526a2.072 2.072 0 0 1 0-2.913Z"/></g><defs><clipPath id="a"><path fill="#fff" transform="translate(43 18)" d="M0 0h130v30H0z"/></clipPath></defs></svg>