<svg width="216" height="64" fill="none" xmlns="http://www.w3.org/2000/svg"><g clip-path="url(#a)" fill="#fff"><path fill-rule="evenodd" clip-rule="evenodd" d="M39.302 24.208a13.678 13.678 0 0 1 11-5.534c4.532 0 8.55 2.201 11.044 5.593-.106.11-.203.222-.29.335-.457.592-.8 1.354-1.076 2.127-.554 1.556-.977 3.589-1.369 5.492l-.035.171c-.39 1.9-.753 3.667-1.193 4.978-.197.59-.384 1.006-.55 1.273-.173-.269-.37-.69-.577-1.288-.47-1.35-.864-3.185-1.283-5.144l-.014-.064c-.402-1.883-.829-3.88-1.361-5.408-.267-.768-.595-1.523-1.024-2.108-.421-.576-1.122-1.225-2.147-1.225-1.019 0-1.723.642-2.15 1.211-.438.582-.779 1.333-1.06 2.102-.565 1.547-1.027 3.57-1.458 5.476l-.044.197c-.426 1.888-.825 3.653-1.277 4.967a7.91 7.91 0 0 1-.483 1.157 7.926 7.926 0 0 1-.47-1.149c-.435-1.286-.815-3.001-1.223-4.844l-.071-.323c-.423-1.907-.882-3.934-1.456-5.486-.285-.771-.633-1.526-1.084-2.11a3.881 3.881 0 0 0-.35-.396Zm-1.511 2.578c.119.235.245.526.375.878.496 1.343.917 3.176 1.35 5.13l.084.38c.395 1.783.805 3.637 1.288 5.069.257.762.568 1.508.967 2.088.378.548 1.055 1.257 2.096 1.257 1.038 0 1.717-.705 2.097-1.251.403-.579.718-1.324.98-2.086.503-1.461.931-3.359 1.341-5.175l.063-.277c.441-1.955.866-3.791 1.359-5.14.228-.624.442-1.06.628-1.33.176.268.378.696.592 1.31.47 1.35.864 3.185 1.283 5.144l.013.064c.403 1.883.83 3.88 1.361 5.408.268.768.596 1.523 1.025 2.108.421.576 1.122 1.225 2.147 1.225 1.03 0 1.728-.655 2.144-1.236.423-.588.74-1.345.997-2.112.494-1.473.886-3.385 1.26-5.203l.054-.264c.402-1.957.789-3.785 1.266-5.124.103-.292.205-.54.302-.749A13.65 13.65 0 0 1 64 32.372c0 7.566-6.133 13.699-13.698 13.699s-13.698-6.133-13.698-13.699c0-1.99.424-3.88 1.187-5.586Zm12.511-10.851c-9.078 0-16.438 7.36-16.438 16.437 0 9.079 7.36 16.438 16.438 16.438 9.079 0 16.438-7.36 16.438-16.438s-7.36-16.437-16.438-16.437Zm.313 10.165-.01.007a.064.064 0 0 1 .01-.007Zm-.378.002-.01-.007.01.007Zm6.394 12.801.01-.007-.01.007Zm.399-.011.01.007-.01-.007Zm-13.36.036s.004-.005.012-.01a.09.09 0 0 1-.012.01Zm.555-.008.012.01s-.004-.002-.012-.01Z"/><path d="M75.816 42.103 71.83 28.468h3.492l2.364 9.814 2.749-9.814h3.903l2.75 9.814 2.391-9.814h3.491l-4.013 13.635H85.3l-2.915-10.198-2.913 10.198h-3.657ZM98.093 42.434c-1.172 0-2.135-.184-2.886-.55-.751-.385-1.31-.89-1.677-1.512a3.992 3.992 0 0 1-.55-2.062c0-1.265.495-2.29 1.485-3.079.99-.788 2.474-1.182 4.453-1.182h3.464v-.33c0-.934-.266-1.622-.797-2.062-.532-.44-1.192-.66-1.98-.66-.714 0-1.337.175-1.869.523-.531.33-.861.825-.99 1.484H93.31c.092-.99.422-1.85.99-2.584.586-.733 1.338-1.292 2.254-1.677.917-.403 1.943-.604 3.079-.604 1.943 0 3.473.485 4.591 1.457 1.118.97 1.677 2.346 1.677 4.123v8.385h-2.997l-.329-2.2a5.054 5.054 0 0 1-1.705 1.815c-.715.476-1.64.715-2.777.715Zm.798-2.75c1.008 0 1.787-.33 2.336-.99.568-.659.926-1.475 1.073-2.446h-2.997c-.935 0-1.603.174-2.007.523-.403.33-.605.742-.605 1.237 0 .531.202.944.605 1.237.404.293.935.44 1.595.44ZM111.44 42.103l-5.002-13.635h3.683l3.464 10.31 3.464-10.31h3.683l-5.03 13.635h-4.262ZM127.806 42.434c-1.374 0-2.593-.294-3.656-.88a6.37 6.37 0 0 1-2.502-2.474c-.605-1.063-.907-2.291-.907-3.684 0-1.411.293-2.666.88-3.766.605-1.1 1.429-1.952 2.474-2.557 1.063-.623 2.309-.934 3.738-.934 1.338 0 2.521.293 3.547.88a6.193 6.193 0 0 1 2.391 2.419c.587 1.007.88 2.134.88 3.38 0 .202-.009.413-.027.633 0 .22-.01.449-.028.687h-10.364c.074 1.063.44 1.897 1.1 2.502.678.605 1.494.907 2.447.907.714 0 1.31-.156 1.787-.467a3.04 3.04 0 0 0 1.099-1.265h3.574a6.525 6.525 0 0 1-1.292 2.364 6.223 6.223 0 0 1-2.2 1.65c-.861.403-1.842.605-2.941.605Zm.027-11.436c-.861 0-1.621.247-2.281.742-.66.476-1.082 1.21-1.265 2.2h6.79c-.055-.899-.384-1.614-.989-2.145-.605-.532-1.356-.797-2.255-.797ZM136.511 42.104V22.311h3.518v19.793h-3.518ZM149.15 42.434c-1.375 0-2.594-.294-3.657-.88a6.374 6.374 0 0 1-2.501-2.474c-.605-1.063-.907-2.291-.907-3.684 0-1.411.293-2.666.879-3.766.605-1.1 1.43-1.952 2.475-2.557 1.063-.623 2.309-.934 3.738-.934 1.338 0 2.52.293 3.547.88a6.193 6.193 0 0 1 2.391 2.419c.586 1.007.88 2.134.88 3.38 0 .202-.009.413-.028.633 0 .22-.009.449-.027.687h-10.364c.074 1.063.44 1.897 1.1 2.502.678.605 1.493.907 2.446.907.715 0 1.311-.156 1.787-.467.495-.33.861-.752 1.1-1.265h3.574a6.525 6.525 0 0 1-1.292 2.364 6.223 6.223 0 0 1-2.2 1.65c-.861.403-1.841.605-2.941.605Zm.027-11.436c-.861 0-1.622.247-2.282.742-.659.476-1.081 1.21-1.264 2.2h6.79c-.055-.899-.385-1.614-.99-2.145-.605-.532-1.356-.797-2.254-.797ZM163.491 42.434c-1.209 0-2.272-.193-3.189-.578-.916-.403-1.649-.953-2.199-1.65a4.741 4.741 0 0 1-.99-2.418h3.547c.109.531.403.99.879 1.374.495.367 1.128.55 1.897.55.77 0 1.329-.156 1.677-.467.366-.312.55-.67.55-1.072 0-.587-.257-.981-.77-1.183-.513-.22-1.228-.43-2.144-.632a23.547 23.547 0 0 1-1.787-.467 9.17 9.17 0 0 1-1.677-.687 3.89 3.89 0 0 1-1.21-1.1c-.311-.458-.467-1.017-.467-1.677 0-1.21.477-2.227 1.43-3.051.971-.825 2.327-1.237 4.068-1.237 1.613 0 2.896.375 3.849 1.127.971.751 1.549 1.787 1.732 3.106h-3.326c-.202-1.008-.963-1.512-2.282-1.512-.66 0-1.173.128-1.54.385-.348.257-.522.577-.522.962 0 .403.266.724.797.962.532.239 1.237.459 2.117.66.953.22 1.823.467 2.611.742.807.257 1.448.651 1.925 1.182.476.514.714 1.256.714 2.227a3.825 3.825 0 0 1-.659 2.282c-.458.678-1.118 1.21-1.98 1.594-.861.385-1.878.578-3.051.578ZM176.834 42.434c-1.21 0-2.273-.193-3.189-.578-.916-.403-1.65-.953-2.199-1.65a4.733 4.733 0 0 1-.99-2.418h3.546c.11.531.403.99.88 1.374.495.367 1.127.55 1.897.55.769 0 1.328-.156 1.677-.467.366-.312.549-.67.549-1.072 0-.587-.256-.981-.769-1.183-.513-.22-1.228-.43-2.144-.632a23.447 23.447 0 0 1-1.788-.467 9.189 9.189 0 0 1-1.676-.687 3.89 3.89 0 0 1-1.21-1.1c-.312-.458-.467-1.017-.467-1.677 0-1.21.476-2.227 1.429-3.051.972-.825 2.328-1.237 4.069-1.237 1.613 0 2.895.375 3.849 1.127.971.751 1.548 1.787 1.731 3.106h-3.326c-.202-1.008-.962-1.512-2.282-1.512-.659 0-1.173.128-1.539.385-.349.257-.522.577-.522.962 0 .403.265.724.797.962.531.239 1.237.459 2.116.66.954.22 1.824.467 2.612.742.807.257 1.448.651 1.924 1.182.477.514.715 1.256.715 2.227a3.832 3.832 0 0 1-.659 2.282c-.459.678-1.119 1.21-1.98 1.594-.861.385-1.879.578-3.051.578Z"/></g><defs><clipPath id="a"><path fill="#fff" transform="translate(33 15)" d="M0 0h150v34H0z"/></clipPath></defs></svg>